<svg width="16" height="15" viewBox="0 0 16 15" fill="none" xmlns="http://www.w3.org/2000/svg">
<path d="M8 0.0178223C6.67578 0.0178223 5.44531 0.351807 4.30859 1.01978C3.20703 1.66431 2.33398 2.53735 1.68945 3.63892C1.02148 4.77563 0.6875 6.0061 0.6875 7.33032C0.6875 8.65454 1.02148 9.88501 1.68945 11.0217C2.33398 12.1233 3.20703 12.9963 4.30859 13.6409C5.44531 14.3088 6.67578 14.6428 8 14.6428C9.32422 14.6428 10.5547 14.3088 11.6914 13.6409C12.793 12.9963 13.666 12.1233 14.3105 11.0217C14.9785 9.88501 15.3125 8.65454 15.3125 7.33032C15.3125 6.0061 14.9785 4.77563 14.3105 3.63892C13.666 2.53735 12.793 1.66431 11.6914 1.01978C10.5547 0.351807 9.32422 0.0178223 8 0.0178223ZM8 1.14282C9.125 1.14282 10.168 1.42407 11.1289 1.98657C12.0547 2.53735 12.793 3.27563 13.3438 4.20142C13.9062 5.16235 14.1875 6.20532 14.1875 7.33032C14.1875 8.45532 13.9062 9.49829 13.3438 10.4592C12.793 11.385 12.0547 12.1233 11.1289 12.6741C10.168 13.2366 9.125 13.5178 8 13.5178C6.875 13.5178 5.83203 13.2366 4.87109 12.6741C3.94531 12.1233 3.20703 11.385 2.65625 10.4592C2.09375 9.49829 1.8125 8.45532 1.8125 7.33032C1.8125 6.20532 2.09375 5.16235 2.65625 4.20142C3.20703 3.27563 3.94531 2.53735 4.87109 1.98657C5.83203 1.42407 6.875 1.14282 8 1.14282ZM7.4375 3.95532V6.76782H4.625V7.89282H7.4375V10.7053H8.5625V7.89282H11.375V6.76782H8.5625V3.95532H7.4375Z" fill="url(#paint0_linear)"/>
<defs>
<linearGradient id="paint0_linear" x1="8" y1="-10.7744" x2="-9.70944" y2="7.2256" gradientUnits="userSpaceOnUse">
<stop stop-color="#013FFB"/>
<stop offset="1" stop-color="#A295F2"/>
</linearGradient>
</defs>
</svg>
