<svg width="12" height="14" viewBox="0 0 12 14" fill="none" xmlns="http://www.w3.org/2000/svg">
<path d="M5.0708 0.5C4.74268 0.5 4.47314 0.605469 4.26221 0.816406C4.05127 1.02734 3.9458 1.29688 3.9458 1.625V2.1875H0.570801V3.3125H1.1333V12.3125C1.1333 12.7695 1.29736 13.168 1.62549 13.5078C1.96533 13.8359 2.36377 14 2.8208 14H9.5708C10.0278 14 10.4204 13.8359 10.7485 13.5078C11.0884 13.168 11.2583 12.7695 11.2583 12.3125V3.3125H11.8208V2.1875H8.4458V1.625C8.4458 1.29688 8.34033 1.02734 8.12939 0.816406C7.91846 0.605469 7.64893 0.5 7.3208 0.5H5.0708ZM5.0708 1.625H7.3208V2.1875H5.0708V1.625ZM2.2583 3.3125H10.1333V12.3125C10.1333 12.4648 10.0747 12.5996 9.95752 12.7168C9.85205 12.8223 9.72314 12.875 9.5708 12.875H2.8208C2.66846 12.875 2.53369 12.8223 2.4165 12.7168C2.31104 12.5996 2.2583 12.4648 2.2583 12.3125V3.3125ZM3.3833 5V11.1875H4.5083V5H3.3833ZM5.6333 5V11.1875H6.7583V5H5.6333ZM7.8833 5V11.1875H9.0083V5H7.8833Z" fill="#E91616"/>
</svg>
