<svg width="30" height="22" viewBox="0 0 30 22" fill="none" xmlns="http://www.w3.org/2000/svg">
<path fill-rule="evenodd" clip-rule="evenodd" d="M14.9996 0.333252C18.9729 0.333252 22.2609 3.23192 22.8836 7.02792C26.6756 7.31058 29.6662 10.4693 29.6662 14.3333C29.6662 18.3839 26.3822 21.6666 22.3329 21.6666H6.99955C3.31822 21.6666 0.332886 18.6813 0.332886 14.9999C0.332886 11.3186 3.31822 8.33325 6.99955 8.33325C6.99955 3.91459 10.5822 0.333252 14.9996 0.333252ZM14.5279 5.86363L9.81454 10.5783C9.55454 10.8383 9.55454 11.261 9.81454 11.521L10.0905 11.797C10.2159 11.9223 10.3852 11.993 10.5625 11.993H12.3332V16.9996C12.3332 17.3676 12.6305 17.6663 12.9999 17.6663H16.9999C17.3679 17.6663 17.6665 17.3676 17.6665 16.9996V11.993H19.4372C19.6145 11.993 19.7839 11.9223 19.9079 11.797L20.1839 11.521C20.4452 11.261 20.4452 10.8383 20.1839 10.5783L15.4705 5.86363C15.2065 5.60096 14.7919 5.60096 14.5279 5.86363Z" fill="url(#paint0_linear)"/>
<defs>
<linearGradient id="paint0_linear" x1="14.9996" y1="-10.1612" x2="-4.86871" y2="17.6059" gradientUnits="userSpaceOnUse">
<stop stop-color="#013FFB"/>
<stop offset="1" stop-color="#A295F2"/>
</linearGradient>
</defs>
</svg>
